Coordinates
version=1
nRows=15
nColumns=19
inDegrees=yes

Units are S.I. units (second, meters, Newtons, ...)
If the header above contains a line with 'inDegrees', this indicates whether rotational values are in degrees (yes) or radians (no).

endheader
time	pelvis_tilt	pelvis_list	pelvis_rotation	pelvis_tx	pelvis_ty	pelvis_tz	hip_flexion_r	hip_adduction_r	hip_rotation_r	knee_angle_r	knee_angle_r_beta	ankle_angle_r	hip_flexion_l	hip_adduction_l	hip_rotation_l	knee_angle_l	knee_angle_l_beta	ankle_angle_l
     17.16000000	     -4.28274627	      8.96795325	      1.95637461	      2.35156314	      1.02527098	      1.03546101	     -9.50361511	    -11.20429924	     -6.37089729	     73.64227373	      1.28530015	    -14.63741946	     26.93873600	     12.66947763	    -10.08546135	     17.01499124	      0.29696762	      6.50273005
     17.16666667	     -4.46891066	      9.09321192	      2.29642333	      2.34951840	      1.01948619	      1.03567169	     -7.68531753	    -10.97193496	     -5.32159820	     77.51628071	      1.35291432	    -14.05268413	     27.99926370	     12.56287033	    -10.60229127	     20.74623999	      0.36209020	      6.19677893
     17.17333333	     -4.42665340	      9.27785481	      2.65895588	      2.34741329	      1.01372682	      1.03589790	     -6.10992085	    -10.86157250	     -4.50744027	     81.24771841	      1.41804020	    -13.45543305	     28.77385201	     12.52516044	    -10.99073478	     24.50132437	      0.42762878	      6.15426003
     17.18000000	     -4.42535895	      9.38784809	      3.03008153	      2.34513839	      1.00782936	      1.03616472	     -4.41439673	    -10.71931305	     -3.78340120	     84.87355065	      1.48132291	    -12.83658758	     29.55085060	     12.42527331	    -11.21579703	     28.25695866	      0.49317697	      6.46542142
     17.18666667	     -3.86731426	      9.79063707	      3.46360641	      2.34295359	      1.00256990	      1.03635380	     -3.41269115	    -11.02237848	     -3.45384767	     88.25520058	      1.54034383	    -12.09770669	     29.52667586	     12.70253985	    -11.28131421	     31.70438511	      0.55334591	      7.13530353
     17.19333333	     -4.59986121	      9.45310869	      3.82393071	      2.34009449	      0.99592481	      1.03668484	     -0.59879983	    -10.46593561	     -2.60089119	     91.75312048	      1.60139405	    -11.48046819	     31.00595906	     12.21209605	    -11.14338058	     35.40355745	      0.61790864	      8.28128983
     17.20000000	     -4.75129015	      9.44465011	      4.19789343	      2.33735394	      0.99016836	      1.03693693	      1.51517205	    -10.40776299	     -2.07006687	     94.96958807	      1.65753200	    -10.73870466	     31.58015702	     12.14176337	    -10.91007853	     38.62813799	      0.67418819	      9.74057416
     17.20666667	     -4.13935313	      9.81752534	      4.59796322	      2.33485243	      0.98571647	      1.03706301	      2.69221216	    -10.91445570	     -1.86805498	     97.82771696	      1.70741576	     -9.97622568	     30.99084802	     12.52297471	    -10.63284564	     41.29428751	      0.72072128	     11.51618620
     17.21333333	     -5.06187571	      9.32275170	      4.87325345	      2.33154558	      0.97971483	      1.03735680	      6.03226902	    -10.36082825	     -1.05901171	    100.80045851	      1.75929989	     -9.20124798	     32.15542566	     12.06043994	    -10.09830125	     44.12586512	      0.77014163	     13.45816289
     17.22000000	     -5.21969427	      9.26685023	      5.13184389	      2.32860451	      0.97516665	      1.03752080	      8.42821575	    -10.43534958	     -0.52588900	    103.37230300	      1.80418704	     -8.40267290	     32.10898822	     12.07209646	     -9.62814302	     46.30902179	      0.80824490	     15.52086966
     17.22666667	     -5.31848657	      9.19050687	      5.32550631	      2.32574138	      0.97127287	      1.03764693	     10.83524689	    -10.51504311	      0.03295613	    105.65725720	      1.84406702	     -7.62830414	     31.75548721	     12.08521544	     -9.10965914	     48.08519889	      0.83924504	     17.61249040
     17.23333333	     -5.36479891	      9.10148063	      5.45444926	      2.32302778	      0.96806077	      1.03771817	     13.24157825	    -10.60446515	      0.60719734	    107.63253130	      1.87854205	     -6.86377797	     31.10520183	     12.09247837	     -8.57758388	     49.45904623	      0.86322320	     19.62610842
     17.24000000	     -4.96978421	      9.08322102	      5.57818009	      2.32068597	      0.96610515	      1.03765083	     15.10132280	    -10.80862539	      1.03133779	    109.18207742	      1.90558674	     -6.05804242	     29.68613311	     12.19073130	     -7.97264095	     50.35774617	      0.87890847	     21.56659992
     17.24666667	     -5.11972588	      8.90668890	      5.45686957	      2.31846847	      0.96408050	      1.03779476	     17.73307252	    -10.76415688	      1.76095015	    110.52003310	      1.92893847	     -5.29521588	     28.72070386	     12.02394414	     -7.59902892	     50.98862914	      0.88991946	     23.20535462
     17.25333333	     -5.09394430	      8.73161412	      5.37000552	      2.31652719	      0.96307511	      1.03771212	     20.12196738	    -10.73662333	      2.33696857	    111.44213418	      1.94503217	     -4.64498474	     27.33661690	     11.90691432	     -7.13888503	     51.22026033	      0.89396219	     24.66268922
